<mxfile host="Electron" agent="Mozilla/5.0 (Windows NT 10.0; Win64; x64) AppleWebKit/537.36 (KHTML, like Gecko) draw.io/27.0.9 Chrome/134.0.6998.205 Electron/35.4.0 Safari/537.36" version="27.0.9">
  <diagram id="ggyDaBEigRkIFyP_Q6qX" name="Data flow ">
    <mxGraphModel dx="1303" dy="783" grid="1" gridSize="10" guides="1" tooltips="1" connect="1" arrows="1" fold="1" page="1" pageScale="1" pageWidth="1920" pageHeight="1200" math="0" shadow="0">
      <root>
        <mxCell id="0" />
        <mxCell id="KsE8Vp3s20GESLzes6BM-16" parent="0" />
        <mxCell id="k2JVAGaMSUis1EkSIWrg-0" value="" style="rounded=0;whiteSpace=wrap;html=1;" parent="KsE8Vp3s20GESLzes6BM-16" vertex="1">
          <mxGeometry x="455" y="453" width="1010" height="352" as="geometry" />
        </mxCell>
        <mxCell id="hqzwIRu8wqQsER7SYCP6-0" value="" style="rounded=0;html=1;fillColor=none;fontColor=default;whiteSpace=wrap;strokeColor=default;dashed=1;" parent="KsE8Vp3s20GESLzes6BM-16" vertex="1">
          <mxGeometry x="475" y="477" width="180" height="288" as="geometry" />
        </mxCell>
        <mxCell id="hqzwIRu8wqQsER7SYCP6-1" value="&lt;font style=&quot;font-size: 24px;&quot;&gt;Sources&lt;/font&gt;" style="rounded=0;whiteSpace=wrap;html=1;strokeColor=none;" parent="KsE8Vp3s20GESLzes6BM-16" vertex="1">
          <mxGeometry x="505" y="458" width="120" height="30" as="geometry" />
        </mxCell>
        <mxCell id="00hFxqHZDpePLxhZEk7Y-0" value="&lt;b&gt;&lt;font style=&quot;font-size: 14px;&quot;&gt;Bronze Layer&lt;/font&gt;&lt;/b&gt;" style="rounded=1;whiteSpace=wrap;html=1;fillColor=#ffe6cc;strokeColor=#d79b00;" parent="KsE8Vp3s20GESLzes6BM-16" vertex="1">
          <mxGeometry x="740" y="477" width="180" height="30" as="geometry" />
        </mxCell>
        <mxCell id="6bYLMgrcsjB2hjd1M9z5-0" value="" style="rounded=1;whiteSpace=wrap;html=1;fillColor=light-dark(#f8b06d, #5c320b);strokeColor=#d79b00;shadow=0;arcSize=3;fillStyle=hatch;" parent="KsE8Vp3s20GESLzes6BM-16" vertex="1">
          <mxGeometry x="740" y="513" width="180" height="252" as="geometry" />
        </mxCell>
        <mxCell id="HpfRpPVU0rThaKlWhV43-8" style="edgeStyle=orthogonalEdgeStyle;rounded=0;orthogonalLoop=1;jettySize=auto;html=1;entryX=0;entryY=0.5;entryDx=0;entryDy=0;exitX=1;exitY=0.5;exitDx=0;exitDy=0;" parent="KsE8Vp3s20GESLzes6BM-16" source="6bYLMgrcsjB2hjd1M9z5-3" target="HpfRpPVU0rThaKlWhV43-2" edge="1">
          <mxGeometry relative="1" as="geometry">
            <mxPoint x="905" y="638" as="sourcePoint" />
          </mxGeometry>
        </mxCell>
        <mxCell id="6bYLMgrcsjB2hjd1M9z5-3" value="&lt;font style=&quot;font-size: 16px;&quot;&gt;zepto&lt;/font&gt;" style="rounded=1;whiteSpace=wrap;html=1;fillColor=#ffe6cc;strokeColor=#d79b00;" parent="KsE8Vp3s20GESLzes6BM-16" vertex="1">
          <mxGeometry x="755" y="605" width="150" height="48" as="geometry" />
        </mxCell>
        <mxCell id="QcPrSYHMvMbwt-YgAI6F-4" style="edgeStyle=orthogonalEdgeStyle;rounded=0;orthogonalLoop=1;jettySize=auto;html=1;entryX=0;entryY=0.5;entryDx=0;entryDy=0;" parent="KsE8Vp3s20GESLzes6BM-16" edge="1">
          <mxGeometry relative="1" as="geometry">
            <mxPoint x="595.8" y="638" as="sourcePoint" />
            <mxPoint x="755" y="638" as="targetPoint" />
          </mxGeometry>
        </mxCell>
        <mxCell id="HpfRpPVU0rThaKlWhV43-0" value="&lt;span style=&quot;font-size: 14px;&quot;&gt;&lt;b&gt;Silver Layer&lt;/b&gt;&lt;/span&gt;" style="rounded=1;whiteSpace=wrap;html=1;fillColor=#f5f5f5;strokeColor=#666666;fontColor=#333333;" parent="KsE8Vp3s20GESLzes6BM-16" vertex="1">
          <mxGeometry x="998" y="477" width="180" height="30" as="geometry" />
        </mxCell>
        <mxCell id="HpfRpPVU0rThaKlWhV43-1" value="" style="rounded=1;whiteSpace=wrap;html=1;fillColor=#CCCCCC;strokeColor=#666666;shadow=0;arcSize=3;fontColor=#333333;fillStyle=hatch;" parent="KsE8Vp3s20GESLzes6BM-16" vertex="1">
          <mxGeometry x="998" y="513" width="180" height="252" as="geometry" />
        </mxCell>
        <mxCell id="HpfRpPVU0rThaKlWhV43-2" value="&lt;font style=&quot;font-size: 16px;&quot;&gt;zepto&lt;/font&gt;" style="rounded=1;whiteSpace=wrap;html=1;fillColor=#f5f5f5;strokeColor=#666666;fontColor=#333333;" parent="KsE8Vp3s20GESLzes6BM-16" vertex="1">
          <mxGeometry x="1015" y="605" width="150" height="48" as="geometry" />
        </mxCell>
        <mxCell id="FbupNl8SZfFYCRPVvc2g-0" value="&lt;span style=&quot;font-size: 14px;&quot;&gt;&lt;b&gt;Gold Layer&lt;/b&gt;&lt;/span&gt;" style="rounded=1;whiteSpace=wrap;html=1;fillColor=#fff2cc;strokeColor=#d6b656;" parent="KsE8Vp3s20GESLzes6BM-16" vertex="1">
          <mxGeometry x="1255" y="477" width="180" height="30" as="geometry" />
        </mxCell>
        <mxCell id="FbupNl8SZfFYCRPVvc2g-1" value="" style="rounded=1;whiteSpace=wrap;html=1;fillColor=#FFD966;strokeColor=#d6b656;shadow=0;arcSize=2;glass=0;fillStyle=hatch;" parent="KsE8Vp3s20GESLzes6BM-16" vertex="1">
          <mxGeometry x="1255" y="513" width="180" height="252" as="geometry" />
        </mxCell>
        <mxCell id="FbupNl8SZfFYCRPVvc2g-3" value="&lt;font style=&quot;font-size: 16px;&quot;&gt;zepto&lt;/font&gt;" style="rounded=1;whiteSpace=wrap;html=1;fillColor=#fff2cc;strokeColor=#d6b656;fontSize=12;" parent="KsE8Vp3s20GESLzes6BM-16" vertex="1">
          <mxGeometry x="1270" y="605" width="150" height="48" as="geometry" />
        </mxCell>
        <mxCell id="FbupNl8SZfFYCRPVvc2g-20" value="" style="endArrow=classic;html=1;rounded=0;exitX=1;exitY=0.5;exitDx=0;exitDy=0;entryX=0;entryY=0.5;entryDx=0;entryDy=0;jumpStyle=gap;" parent="KsE8Vp3s20GESLzes6BM-16" source="HpfRpPVU0rThaKlWhV43-2" target="FbupNl8SZfFYCRPVvc2g-3" edge="1">
          <mxGeometry width="50" height="50" relative="1" as="geometry">
            <mxPoint x="1205" y="558" as="sourcePoint" />
            <mxPoint x="1295" y="608" as="targetPoint" />
          </mxGeometry>
        </mxCell>
        <mxCell id="k2JVAGaMSUis1EkSIWrg-1" value="Data Flow" style="text;html=1;align=center;verticalAlign=middle;whiteSpace=wrap;rounded=0;fontSize=30;" parent="KsE8Vp3s20GESLzes6BM-16" vertex="1">
          <mxGeometry x="870" y="395" width="180" height="58" as="geometry" />
        </mxCell>
        <mxCell id="8RG43NqTyCVDe2dReE4c-0" value="" style="shape=image;verticalLabelPosition=bottom;labelBackgroundColor=default;verticalAlign=top;aspect=fixed;imageAspect=0;image=data:image/png,iVBORw0KGgoAAAANSUhEUgAAAgAAAAIACAYAAAD0eNT6AAAACXBIWXMAAA7DAAAOwwHHb6hkAAAAGXRFWHRTb2Z0d2FyZQB3d3cuaW5rc2NhcGUub3Jnm+48GgAAIABJREFUeJzs3WdgFNXeBvBnZkt6I9n0DqG3AKH3TlCagBW7WEDF3nu9eu3XLmIFKyqKNAGliSDSe08IpBBCetky7wfEF5WSmZ2ZLfP8Pl1xz5y/XpN5duac/xHgWUJatLWlS5S6ixCaSZCSASRAQBIkJAGI8HB95J+OAyiRgFIB2ClI0mbJhI31cPxaVIRqTxdHRKQHQe8JU6ItOYIg5QqC2F2C1B1ApN41EJ1BPSSsEERpvtNpmXWotLbA0wUREWlFlwCQ2sTaWjLhYgHSRQCa6TEnkZucgDBfkoR38o/Wfw9A8nRBRERq0jIACKkxAecJcD0gCeim4TxEmpKAjaIgPHawuOFbMAgQkZ/QIgCIabHWMZIkPQggW4PrE3mEBKyWRGHyoaKGzZ6uhYjIXaoGgJQ4a1u4pHcFoLua1yXyInZA+G9YScOjW4EGTxdDRKSUKgGgM2ApsZlvB4THAASocU0iL7dONJnGHyisO+DpQoiIlHA7AKRHW1u6TNLXkNBajYKIfIUAlDglacKho45fPF0LEZFcojuDk23m4S5R+pU3fzIiCbCJgrAgLdY61tO1EBHJZVI6MNVmvkeA8D6AIBXrIfI1ZgDjwoPNuytqnFs8XQwRUWMpegWQZrM+KUF6QO1iiHyYUxCECQeLG77xdCFERI0hOwCk2KxPCJAe1KKYJqEmZCZakRxjQVSYCVGhIkwm3ZsVkp+rqZdQdMyO3QUN2HqwHg6nalv7awFpaF6JY4VaFyQi0oqsu2tqrPVRSNIjak2eHGPBwOxQdG8VhI6ZgbBFmtW6NFGj1Da4sGJLLX78rQI//VGNOrvLvQsKOAZR6JtX2LBVnQqJiLTR6ACQFmO9RBKkT92dMCzYhFE9wjC+Tzjapge6ezki1ZRWODB9/nHMXHIc1XXuBAGpwGQ299p/pO6gasUREamsUQEgI9bSwSlhFYBgpROFBZtw3YhIXDYoEmHBitceEmnuaLkDD39YjEV/VLlzmd0W0d57bxGK1aqLiEhN5wwASUmINtVb1kFAmtJJRnYLwwMX2/iIn3zKvLVVeGBGESprnIrGS8Bqp8U+6PBh1KhcGhGR284ZANJsllkScJGSi8dFmfHMNXHo0zZEyXAij9tV0IBrXzyEI6UOZReQ8FPYUftItg0mIm9z1gCQEhMwShBc3ym5cPvMQLx5SxJiI/m4n3xb8XEnrnnhEHbk1ysaLwmYmV9snwTAzRWGRETqOePdOSkJ0aJLnA8gVO5FR3YLw5u3JiIihDd/8n0hgSKG5YRi8foqHK+Sfw8XgHbhweaQihrnIg3KIyJS5Ix36MhAy3MCMFDuBYd0CsXLNyXAanaryzCRVwkOEDE4Owzz11WiqlZBCBDQMzJUrC6vdq3SoDwiItlOGwBS4wIzBUgzzvT3z6RH62C8cUsiLGzeQ34oLFhEr7YhmPtbJertSpoHCUPCQ0x5FTWuDaoXR0Qk02lv8OHBeE+A0FbOhZonWfHh3ckIsvKbP/mv6HATOjYLwtzfKuFU9CAAuZEhwu/lNdIeDcojImq0f92tk+Os7QQIsk43C7AIeOGGBIQE8uZP/q9riyC8elMizMqedFkkiF+lxpp7qV0XEZEc/7pji07pLshsEXzfxTa0TAlQrSgibzcwOwSPTopVOjwYkvBdWrS1lZo1ERHJ8bdXAMnRQUmCyfXuP//8bLKbBuHxK+Ig8LU/GUzb9ECYRWD19lolw4MhSKOjAwK+LqtzlKtdGxHRufztCYBJdN4ECdZGDxaABy+18eZPhnXTqGhcOTRK4Wgh2WF2zE2NgNILEBEpdmoAECVIk+QMHtMzHO0zeaAPGdt9F9uQ21V2u4yT2goWy7y4OLBdJhHp6q8AkBpnHgAgpdEDBeDGUdGaFEXkS0QB+O/kBMUtryUB3QJc1s8A8LAMItLNXwFAcAmXyhk4rEso0uMs6ldE5IMsZgGvTU1w44hr6bwUm+VtyFyAS0Sk1MkAIEpArpyBVw7ja0uiU4UEinjv9kSkKQzGAnB1qs36lMplERGdlggAabHmbgDiGjsoI96C7KZBmhVF5Kuiw82YcWeyG0dfS/elxFhuU7UoIqLTEAHABXGEnEFje4Vz5T/RGaTYLJh+exJCg5Q1xhIE/DclxnqxymUREf2NCACiJPWVM2h4Trg21RD5iVapAXj71kQEWBQlZVEQpA+TbebhatdFRHSSCMAsAZ0bOyAzwYqMeC7+IzqXri2D8fJNiTCJyloGixC+Tos191C7LiIiABDTbJZ2ABq9iblvO25XJmqswdkheOgym9LhwZCE75JiApqrWRMREQCIkoB2cgbktODiPyI5Lh0YiZvHKOuZIQE2k+D6KbFJUKN7dBARNYYoSEILOQOym7LzH5Fct4yJxiUDIpUOTzGbHD+yZTARqUmU4Gp0AIgKMbmxvYnI2B65PBYjcpS3DIbV8m16OpjAiUgVIiAkNvbDWcmNPieIiP5BFIAXrk9ArzaK19H0dVWbvwBbBhORCkTIaADUNJEBgMgdFrOA16bEo2VKgMIrCOenxlreULUoIjIkEUCjN/XH8fE/kdvCgk14/44kpNgUbqeVcF1KrPVxdasiIqMRIePwEauypiZE9A+2SDM+uCsZMRHKQrUgSQ+l2iy3qlwWERmIsl6lROS21FgLZtyZhPBgk9JLvJhqs05UsyYiMg4GACIPapkSgDduToDVrKxlMATp45RY81C16yIi/8cAQORh3Vq50TJYglWQhK/SYiyd1K+MiPwZAwCRFxjSya2WwWEQMJ8tg4lIDgYAIi9x6cBI3HS+Wy2D56XbEK9yWUTkpxgAiLzItHHRmNgvQunwTBcsC9MjobjnMBEZBwMAkRcRBODxK2IxrIvilsHtnBbLN2wZTETnwgBA5GVMooAXrk9ATnNlJ28KQH9XlfkzAIr3FxKR/2MAIPJCARYBb09LRKtUhS2DBWF0aqzldXWrIiJ/wgBA5KXCgk147/ZkJMUobMEt4frUGPPD6lZFRP6CAYDIi8VGmvDhXSmIDlcYAgThsVSb5WZ1qyIif8AAQOTl0uIseGdaIkICFf+4vpxqs45XsyYi8n0MAEQ+oH1mIN66JdGdlsGfpsaZB6tdFxH5LgYAIh/RvXUwnr02Hko6BkOCFS7h6zSbJVv1wojIJzEAEPmQ87uH4aFJsUqHh0vA/GRbQJaaNRGRb2IAIPIxlw2MxOTcJkqHx4pwzcuIRZyaNRGR72EAIPJBd06IwYS+ilsGN3VKlh9axCBMzZqIyLcwABD5IEEAnrgyFkM6KW4Z3KVWsHzXrBkUdhoiIl/HAEDko0yigBdvjEcXhS2DAQywl1s+AH8PEBmSCAGK9hURkecFWkS8My0RLVOUfZGXgIvSbJbXVC6LiHwAkz+RjzvRMjgJidHKugVKwE0pNvP9KpdFRF6OAYDID8RFmfHh3SloorBlsADhyTSb5RqVyyIiL8YAQOQn0t1rGSxIwNtpsdZxatdFRN7JDAmSp4sgInV0yAzEG7ck4toXC2B3yP7RNkmSNDPVZinQojYiA6sAUA1IxwBhrwDsgSCtd1od6w8dQq2nilJ4xBgReauerYPx7NXxuPPdI5Dkx/sAAJnqV0VE+HPNvQQAkgCx3mJPteF3CdIPZkGYu7/YvlHPargLgMgPjeoZhrsnxni6DCI6OwuAHgKEp5wSNqTaLNtTbeZ79OrUyTUARH7q2hFNcPWIKE+XQUSN1xIQnnVKlvzUGMtH6dHWllpOJnINAJH/uneiDeP7hHu6DCKSxwIBk1yitCUl1vJpZlRQqhaT8BUAkR8TBOCJK+LQt32Ip0shIvlMgoRLHGbHjlSb9VmbDYp7f58OnwAQ+TmzWcD/piagUzPFLYOJyLOCAOmeIFj+SIm25Kh1UT4BIDKAIKuIt25LRNNEq6dLISLlsgQRq1JjrY8CMLl7MS4CJDKIqBATPrgzGQkKWwYTkVcwQ5IeSbVZ5zZrArcW+DAAEBlIfBMzpt+ejMhQt788EJFHScMaRMuq9PjAdKVXYAAgMpisJCvevT0JwQH88SfyaQLauJyuX5PjrO2UDOezQCID6pgZiNemJmDRuipPl0Lk96rrXSg65sCeggYcq3KqfHUp3uTC4tQm1v55xxq2yRnJAEBkUH3bhaBvO24PJNLTsQoH1u6qw8qt1Vj4ezVKKx1uX1MCbDC5FqbEBvTLL67f29hxQmqspRQSmjTmw3dPjMF1uY36KBEREZ2F0yVh5ZYafPjTcazYXA2X+5vy97nq7TmHKnCsMR/mS0AiIiIPMIkC+rYPwfTbkzD3yXQMznb7iVymaLV8jkZuEWQAICIi8rBmSVa8eWsSZt6fgowEN/p1CBicarM+2ZiPMgAQERF5iZzmQZjzeCquGhYFQXGbPumeNJsp91yfYgAgIiLyIoEWEfdfbMOrNyUiyKroNi1IEN5Nj0Tk2T4kQmIrYCIiIm8zPCcUn96XjJgIJRv2hETJbHn6bJ8QIfAwICIiIm/ULiMQM+9NRnS4/BAgCbg+xWbuc6a/zycAREREXiwjwYoZdyYhIkR2C29RgPAScPr7PNcAEBEReblWqQF48fp4iPK/sndOibWOPt3fYAAgIiLyAX3bhyhqxidI0hM4zf2eawCIiIh8xLRx0chpHiR3WNuUGOvEf/4h1wAQERH5CLNJwDPXxMNqlnfrFiFN+/efERERkc9Ii7PgsiFn3eL/L5KAbmk2S/apf+aR0wArapx48tMST0xNRETk9a7LbYKspDO3BL5ldDS+/7USJcdlnSZ4LYApJ//CIwGgrgH4ZmWFJ6YmIiLyeqN7hp01AIQEirg+NwpPzmz8l2kJmGSz4Z6SElQBXARIRETkk8b3jUBYsKzeAGFBgnXMyb/gIkAiIiIfFBIoYkLfcHmDJOn8k/+TiwCJiIh81BVDomA2yfoeP6wzYAEYAIiIiHxWYrQZOS1k9QWIKI0x9wIYAIiIiHza0E6hsj7vhDgSYAAgIiLyaUM6h0KQ8xZAkIYADABEREQ+LS7KjHYZgY3+vAC0TUxEMAMAERGRj+vfPkTOx00Wh7kDAwAREZGP69C08U8AAECShC4e6QQoV2xcPEJDZe51JCIi8hL19XUoOJSn2fXbZwRCEACp8a39OvtEALhh6t0Ymjva02UQEREpsnvnNlx1yfnn/qBCkaEmJMdYkF9ib+yQznwFQERE5AfaZ8p4DSCguQiwFTAREZGva5585sOD/kWClU8AiIiI/IBFXktg9gEgIiIyIgYAIiIiA/KJXQBERFqqr6/D8bIyOJ0OT5dCfkQQBEQ1iUZgoKzDenTDAEBEhlFUeBjr1/2GPbt3YO+uHcjL24fysjLU1dV6ujTyY6Fh4QiPiPB0Gf/ikQBQWev0xLREZEC7dmzFwnnfYdWKpcg7sM/T5ZABVVVWoKqyQtaYgqPaP43ySACob/DErERkFHZ7A36c8zW+mz0Lu3Zs9XQ5RLIdq/LTAEBEpAWH3Y4fv/8aH7z3GoqLCj1dDpFi784tQ5BFxEUDIhFg0aZdDwMAEfmFdWtX4fmnHsSh/IOeLoXIbRU1Ljw5swTTF5ThuhFNMLFfhOpBgNsAicin1VRX4alH7sK0Gy/nzZ/8zpFSBx7/pBgjHzyA1dtqVL02AwAR+ay8A/sw+coLMO+H2ZBkHING5GsOFtkx6blDuOX1wyirVmchPQMAEfmknxfPxzWXjcaBfXs8XQqRbuatrcJ5DxzA+r3ub11lACAin7Pgx2/x6P23orZW3UeiRL6g+LgTlz1zCF8uK3frOgwARORTZn/xMZ58+E44HOzaR8bV4JBw//tFeOLTErgUvv1iACAin7Fo3hy8/PzjfN9P9KePFpXhvvcKFYUAbgMkIp+wbu0qPPXY3XC5XKpcr0lEILq0i0XzjCgkxAZDFLTZa03GVl5Vj9Lj9cg/XIm9eeXYn18Bh1Od/4ZPmr2yAqIIZMRbZY3ziQBQUlLIFp5EBrZn9w489chdcNjtbl0nOjIQY4Y0xfmDMtCxlQ2855Peausd2LTjKH794wh+WpWPLbtKocYDra+WV6Bj00BZY4RUm6UMQGRjPnz3xBhcl9tESW1/s+1gA0Y/csDt6xARNUZcTBAmX9QOl4xqgeBAn/jeQwZxsKASX87bjVnf78LRMn0PpeJPAhH5LUEALhvdEvfd0AUhwRZPl0P0L2lJYbjz2k6YOqk9Pp+7Gy/P2IBj5XW6zM1FgETkl2Kjg/HZKyPw5O09ePMnrxcYYMYV41phyadjMXFkli6vp0QAfAtGRH4lKz0S3751Hrp3jPd0KUSyRIUH4vl7euOL13KRGBei6Vx8AkBEfqVr+zh8/XoukjT+5Umkpa7t4/D9O+ejU5tYzeZgACAiv9EmKxoz/jMYEWEBni6FyG0xUUH47JXhGD04U5PrMwAQkV9ITQzDh88PRmiIvL3QRN4swGrCyw/2xXkD01W/NgMAEfm86MhAfPj8UNiaBHu6FCLViaKAlx/oh/7dktW9rqpXIyLSWWiIFR+/MBSZKeGeLoVIMxaLiDce74+maRGqXZMBgIh8lsUi4q0n+qNNVrSnSyHSXEiQBW8+PgCBAeq08GEAICKfJIoCXnmwH/p0SfJ0KUS6aZERhXsmd1blWh7pBBgRIi93XHfDNHTv2VejaojIE4qLC/HME/ejovy4ovEPTemKkQPSVa2JyBdceUErfLd4HzZsK3HrOh4JABazvN5Dbdt1xOBhuRpVQ0R6Ky46gnHnDVB88592VTauntBa5aqIfIMoCnjk5q4Yd9Nctw4S4isAItJVVWUFrrx0LPLzDigaf8moFrjtqo7qFkXkYzq1icX5AzPcugYDABHpxt7QgOuvvghbN29QNH5I7xQ8cVt3lasi8k1TJnVw68wABgAi0oXT6cSU6y/DimVLFI3v3jEerz86AGYTf20RAUDLzCj0c6M3AH+SiEgXjz10Jxb8OEfR2FbNmuC9pwchwGpSuSoi33b1eOVrYRgAiEhzLzz3OD6c/qaisSkJofjo+SEIC2WLX6J/6tMlEYmxyg6+YgAgIk19NONtvPrC04rGRkcF4eMXhiE2mi1+iU5HFAWMGdJU2ViVayEi+suCed/j0QduVzQ2KMCM6c8MQkYyW/wSnc3wvmmKxjEAEJEmVq/8BVMnXwan0yl7rNks4u2nBiK7tU2Dyoj8S/uWMYi3yX9KxgBARKrbunkDrrliAhoa6mWPFUUBLz3QF/26ssUvUWMIAtC7c6LscQwARKSqvIP7ccUlY1BVWaFo/INTcjBqkHsNToiMJqd9nOwxDABEpJrS0hJccfEolBQXKho/dVIHXDOhjcpVEfm/zm1jZY8RAbjRR4iI6ISqygpMuvB87Nu7W9H4cUOb4s5rO6lcFZExZKSEw2qR1yeDTwCIyG32hgbccM3Filv8Du6Vgufv6+1WW1MiIzObRKQnhckawwBARG5xuVy4dcqVWP7LYkXjc9rH4fVH+7PFL5GbsjIiZX2eP3FE5JZH7r8Nc+fMVjS2RUYUpj8zCIEBHjmZnMivxMXI2wrIAEBEir38/JP4aMbbisYmxAbjg+eHICIsQOWqiIzJauYaACLSwcyPpuOl/z6paGyTiEB8+sJwxT3Mich9DABEJNui+XPx0H23KhobFGDGe88MQtO0CJWrIiI5GACISJbVq5ZhyuRL4XA4ZI81m0W89cQARXuWiUhdDABE1Gg7tm/B5KsuRH19neyxggD85+5e6N89WYPKiEguBgAiapT8vAOYdOH5KD9epmj8AzflYPzwZipXRURKMQAQ0TkdO3YUl188CsVFRxSNv+nS9rjuwrYqV0VE7mAAIKKzqq6qxOUXjcK+PbsUjR87tCnuntxZ5aqIyF0MAER0Rg67HTdeewk2b/xD0fiBPVLwX7b4JfJKDABEdFqSJOGu267HL0sXKRqf3cqG1x9ji18ib8WfTCI6rSceuRuzv5ypaGxWeiQ+eH4IggPZ4pfIWzEAENG/vPbSs5j+9muKxsbbgvHR80MRGc4Wv0TejAGAiP5m9pcz8cJ/HlM0Nir8zxa/cWzxS+TtGACI6C8/LfgRd02bDEmSZI8NDDDjvWcGolk6W/wS+QIGACICAKxf9xumXn+ZGy1++6NLuzgNKiMiLTAAEBF27dyGKy4Zg9raGtljBQF45s6eGNA9RYPKiEgrDABEBnfkcAGuuHiU4ha/99+Yg4m5WSpXRURaEwGwRQeRQR07dhSXTszF4YJDisZfMa4VJl/EFr9EvohPAIgMqra2BtdePgF7d+9UNH70kEw8eks3lasiIr0wABAZkMNuxw3XXIx1a39VNL5350S8cG8fiCIfIBL5KgYAIoORJAn33HEjfl68QNH4jq1teOfpgbBY+OuDyJfxJ5jIYJ567F589fknisZmJIfj/WcGISTIonJVRKQ3BgAiA3nj1efx7puvKBobFxOET18ajuioIJWrIiI1CDKP3WQAIDKIb76aheeefljR2LBQKz58biiS2OKXyG/4xFFd9901BQ8/cJunyyDyaZUV5Ypb/M54djBaNWuiQVVE5Cm6BoAGh4SVW6rx49oqWeNqaqqBmmqNqiKiMzGZBLzyUF/ktGeLXyJ/o0sA2J5Xjy+XleP71ZU4XuXUY0oictPJFr/D+6Z5uhQi0oCmAeD3XbV458cyLN0g7xs/EXne3ZM748KRzT1dBhFpRJMAsHl/HZ6eVYLfd9VqcXki0tjlY1ripkvbe7oMItKQqgHgWIUD//2qFF8vL4dL/lojIvICowZl4LFp3T1dBhFpTLUAsHxLNe55rwglx+WfJU5E3qFn5wS8cD9b/BIZgdsBoM7uwjMzj2LWz8ehYIcREXmJ9i1j8N7Tg2C1mDxdChHpwK0AUHLcgRtePYxN++rUqoeIPCA9KQwz/jOYLX6JDERxANh5qB6TXyrA4VI+8ifyZSdb/MawxS+RoSgKAL/vqsW1Lxagus6ldj1EpKPQECs+eG4okuNDPV0KEelMdgDYsLcO172k/s0/KMCMzNQINEuLQLwtBKLMQw2ISL6hfVLQmi1+ifyC3NumrABQWObANS8UoKpWnZt/m6xojByQjt6dE9G2eTRMJt70iYiI9CArAMxeUeH2zT8kyIJxw5riinGtkJUe6da1iIiISBlZAcCdm7/ZLGJibhbuuCabi42IiIhUJncrvhmA5s/de3RKwHN390JqYpjWUxERERmSpmsA5AqwmvDg1K6YNLql7MKIiIhIO5oFgNjoYLzz9EBkt7JpNQURERH9SckrANU1T4/ER/8dhoTYYC0uT0RERP/g8VcAGcnh+PSlYYiN5s2fiIjIW4lqXiwlIRSzXh7Bmz8REZGXUy0ABFhNePvJgXzsT0RE5ANUCwCPT+uONlnRal2OiIiINKRKABg9JBMXnddcjUsRERGRDtwOAKEhVjw0JUeNWoiIiEgnbgeAO6/Jhq0J3/sTERH5ErcCQIuMKEwa21KtWoiIiEgnbgWAW6/sCLNJ1Z2EREREpAPFd++kuBAM65uqZi1ERESkE8UB4Krxrfntn4iIyEcpuoOHBFlw0Uhu+yMiIvIWcs8CUBQABvVMRlioVclQIiIi0oDc0wAVBYBhfdKVDCMiIiIvITsAWC0mDOiepEUtREREpBPZAaBft0SEBFu0qIWIiIh0IgIwyRnQpwu//RMREXkb2YsABUleAOjQMkbeDERERKQ52YsAJaHxrwEsFhGts5rIrYmIiIi8jAgZ6wBaN2sCq0XWAwMiIiLyQrICQIeWNg1LISIiIr3I2gWQFB+iVR1ERETkBl06ARIREZFvYwAgIiIyIAYAIiIiA2IAICIiMiAGACIiIgNiACAiIjIgBgAiIiIDYgAgIiIyIAYAIiIiA2IAICIiMiAGACIiIgNiACAiIjIgBgAiIiIDYgAgIiIyIAYAIiIiA2IAICIiMiAGACIiIgNiACAiIjIgBgAiIiIDYgAgIiIyIAYAIiIiA2IAICIi8gOCIMj6PAMAERGRATEAEBERGRADABERkQExABARERkQAwAREZEBMQAQEREZEAMAERGRATEAEBERGRADABERkQExABARERkQAwAREZEBMQAQEREZEAMAERGRATEAEBERGRADABERkQExABARERkQAwAREZEBMQAQEREZEAMAERGRATEAEBERGRADABERkR8QBHmfZwAgIiIyIAYAIiIiA2IAICIiMiAGACIiIgNiACAiIjIgBgAiIiIDYgAgIiIyIAYAIiIiA2IAICIiMiAGACIiIgNiACAiIjIgBgAiIiIDYgAgIiIyIAYAIiIiA2IAICIiMiAGACIiIgNiACAiIjIgBgAiIiIDYgAgIiIyIAYAIiIiA2IAICIiMiAGACIiIn8gCLI+zgBARERkQAwAREREBsQAQEREZEAMAERERAbEAEBERGRAZk8XQP6v6Ggttu8pxaHCKhSW1KCgqAqHi2tQcqwGdrsLNbUO2B0u1NTZYbe7YDaLCAmyAACCg0xoEhEEW5MgREUGID4mBBkpYUhPDkfT1AjERAV5+J/O8/KPVKGgsBIFRdU4XFyNwpIaHC6qRsmxGjTYXaitc6DB7kRtnRN2uxM1dQ4AQHioFYIgwGwSEBUZgKjwQERFBCAmKgjJ8aFISwpHamIomqVHIjiQvyqI/A1/qklVDocLv20sxJqNxdi88yg27yxFcWmN7GuUV9YDAMorgSPFZx4fbwtGdmsbOrWJRY9OCWjbPFruThifUlHVgPXbSrBhWwnWbz2KDdtLUFZep/haJ5UerwNQftrPmUwCmqVFon2LaHRqG4t+XZORFB+iaE4lFizPw/qtJbrN17NTPPp2TdJtPjk++2EXDhyq1GWurh1iMbBHii5zkWcwAJDbyivrsfTXAvy0Mg8/rylA5Sk3Fq0VltRg3i8HMe+XgwCAuJggDOqZipED0tGPwcoMAAAgAElEQVSzUwJE0ffTQOnxOsz5aR/mL8vD2k2FcDolXed3OiXs3FeGnfvK8OW8PQCArPRIDO6VivHDm6FZeoSm85tNAt78dJOmc5zqjy3FXhkAGuxOPPG/taiq1ufnq0/OMF3mIc9hACDFNu04io+/2YE5i/ejrt7h6XIAnHjdMHPOTsycsxOpiWG46LzmuHhUczSJCPR0abJt2VWKt2duxvxleWiwOz1dzt/sPnAcuw8cx5ufbkJ2GxsuH9sKowZnwGxSf1lRv25JiI0Olv0kSanftxSh9HgdoiO967+ZVeuO6Hbzj7cFo3vHBF3mIs9hACBZJAmYu/QA3vlsMzZuP+rpcs4q73AlnntnHV7/eBOuHN8K113YBlE+EATWby3Bqx9uxNLV+ZD0/bKvyPqtJVi/tQSvzFiPqVd0xAXDmqr65MVsEjFmaCbembVFtWuejdMpYfHKfEwcmaXLfI21cEWebnONH54Fk8n3n57R2XEXADXa2k1FGHvDD5jyyFKvv/mfqrrWjtc/3oQ+F32Nj2Zvh8vlnXfVY+V1uPGhpRhzww9Y8qtv3PxPdaCgEnc+vRzjbpqLHfvKVL32xFx9b8YLVxzUdb5zkSRgya/5us03blhT3eYiz2EAoHMqOlqL6x9cgvFTfsT6bfotxlJbZVUDHnppNS6Y8iP25Z1+wZun/LQyH0MmfYsffz7g6VLctn5rCUZeM0fVb+xZ6ZHo2Nqm2vXOZfnaI3/tlvAGG7eXnHUxrJqy29jQNE3bdR3kHRgA6KwWLM/D8Cu/xfxfvOsbkTv+2FKM8679Hj8sOeDpUuBySXj81TW45t6fcLSs1tPlqMbhcOGpN9bi5kd/Rq1K60PGD2+mynUao67egeVrDus237ksWqHft389/z2TZzEA0GnV1jtw73MrMfn+xTimcJuZN6uutWPqo0vx3DvrPPao3emUcM9/VmL6l1s9U4AO5izej8tvX6jKt+kxQzIRGKDfsiVveg2gVy0Wi4iRA9J1mYs8jwGA/uV4RT0unbYAs77f5elSNCVJwOsfb8IdTy+Hw+nSde76Bieuu38xvvhxt67zesKaTUW44YElsNvd+3ccFmrF0N767Uv/aWW+7v9dnM7Bgkrs2n9cl7mG9Un1iYWypA4GAPqbQ4VVGHvjXKzbUuzpUnTz9fw9uPOZFbouDnzwhV+xeJV+j3U97Zc1BXjy9bVuX2e8josBj1fUY+3GIt3mOxM9n0SMH8HH/0bCAEB/2XOgHONu/MHrFsjp4ZsFe/H0G7/rMtf7X24zxDf/f/rg6234fsl+t67Rp0siEmP160Ko59a7M1m0XJ+gGBMVhD453tcAibTDAEAATqz0n3TnAhQd9Z+FaHK9+/kWzPhqm6ZzrN5QiKdU+Cbsqx584Ve31pSIooBxw/T7lrpg+UGPbscsK6/T7Wnc2GFNNWnkRN6L/28TqmvsuPKuhThcVO3pUjzuyf+txe+btXnsa7e7cO9/VnrFe2VPOV5Rj+feXufWNcbnNtPtvIeCwmps21Oqz2SnsXjVId3+e7mAq/8NhwHA4JxOCdc/uBTb9hzzdCleweF04ebHfsHxinrVrz3jq23Yf6hC9ev6ms/n7sZONxoFZSSHo3PbOBUrOruFOj2CP+3cOr3/b5MVjVZNo3SZi7wHA4DBvT1rM5avLfB0GV7lcFE1Hn5ptarXPFZeh1c/2qjqNX2VyyXhnc/caxI0caS+rwE8ocHuxIrfj+gyFxf/+Qe5D8Z4FoCBbdtzDC++v97TZXil737ahzFDM1U7DvXzH3bpekpiWlIYendJRNvm0YiNDkZoiAWQJJRX2nGsvA7b9x7D+q0l2Lq7VPfTBYET/37vuq4z4m3BisafNzADj72yBtW1dpUr+7fte44h73AlUhPDNJ/rVMvXHkZ1jfb/fGaTiFGDMzSfh7wPA4BB1Tc4Me2JZW7vzfZnj77yG3p2SnC7+YwkAV/M1WfVf8vMKDxySzf06JTQqPfkh4ur8dn3u/DRNztQpmPDJ7vdhW8W7sGNl7ZXND4kyIJhfVMxe8FelSs7vYUr8nDtxDa6zPXXnMv12YEwoEcSYqKCdJmLvAtfARjUu59vces9rBEcLKjER7N3uH2dNZsKsS9f+3f/44Y1xQ/vjULPzo27+QNAYmwIbr8mG4s/HoMR/dK0LfAf5vzk3pZAPQ8IWqTTzfgkl0vC4lWHdJlr/HDvOvWQ9MMAYEDllfV4Z5b/tp9V0/8+3oTySvcWBC7R4Rd5n5wkvHB/H1gsyn6ko6OC8NaTA3HNBP2+5W7bc8ytnhPdsxN0eyy/dnMRSo/r94Rkw7YSlBzT/vCfyPAADOyZrPk85J34CsCAXvvI/ZuaGqIjA9GnayLaZkUjKyMS0ZFBCAm2QBQFVFY14HBRNXbtP4ZV6wuxdlORR15XlFfWY/oX23D7NdmKr6H1Pm5BAB6/rTtE0f29cQ/d3BWl5bX4duE+FSo7txXrjiAzVdnJc4IAjBvWDC/P0H4di9MpYfGqfN2eOizU6fCfUYMzYbWYdJmLvA8DgMEcKa7BR7O3e2x+URQwsEcyrpnQBt2z489602rXIhrD+qbi5itO3Ii/mLsb73+1Tfd+BR99swM3XtYOQQrWAtjtLmzacVSDqv5fx1Y2ZKaEq3ItQQAeu7U7lq85rMs33t82HMHlY1sqHj8htxle/XCDLm2cF63I0zEA6LPzgCf/GRtfARjMp3N2or7B6ZG522RFY/YbIzH92cHo2TlB1jfWiLAAXHdRWyz9dBymXZWt+FG3EmXldfh63h5FY/cfqtD833dWeqSq14sMD3DriYccaza693QkOT4U3TrGq1TN2S1bc1iVUw3P5UBBJfYe1L4dd2ZKODq0itF8HvJeDAAG4nC68PkPnjnh7/KxLTHnnfOQ3cbm1nUCA8y47eqO+PK1XF17wr//1TZFLWH1OErZpUGv2rHDmiIkyKL6df+puLQGpWXutZ+eoNMe9rp6B5avPaz5PAt+OaD5HAAwcSQX/xkdA4CB/LQiH8Wl2i8s+qcHbsrBE7f3gNms3n9u2W1s+PqNkUhL0mcR2N6D5YpaBB8v136txdpNRar3qw8JsuC8gfrsDd/t5rfdEf3TERpiVamas1ukQ1MgPd7/i6KA0UOaaj4PeTcGAAOZOWen7nPeemVHTL64rSbXTowLwayXRyBapz3MX8+X/xqgQofmPwcLKjF7gbJXFGfTt6s+J8PtOeDeWffBgWaM7J+uTjHn8JPGvflLy2qxfpv2h//01vlURfJOXARoEJVVDVj5hz5tRU8a2CMFt12t7bvkpPgQvP5oP1w8bb7mp7bNXXoAj03rjgBr41dNm0z6nFrz4Au/IjoyEP27q7elK6f9ufvtCwIQHhqA8FALQkOsCA+xIizUgtAQC8JDrCf+LNSC8NCAE38WakHYyT8Psf75Z+5/e5+Q2wyfz9X+9VZZeR1+31SE7tkJmlx/8apDunRm5OI/AhgADGPZ2sNwOPTbRhcdFYQXHuity6ltPTolILd/OuYuPaD6tRNig9GpTSw6tY1Fp9Y22Tf0AKs+P2I1dQ5cefciTBrTElMv74i4GPefisTFBOHRW7shwGr68wZu/uumHvbnjT0kWPt1Ao2R0z4OTdMidFk8t3B5vmYBQI/V/6EhVgztm6r5POT9GAAM4ufV+nQVO+ne6zujSUSgbvPdfX0XLFyR51avAItFRNvm0ejU+sQNv3PbWCTEKutVf1KsCjfixpKkE1sWZ36/C8P7puL8gZno2y0JwYHKf8yvGt9axQq1NW5YUzz/zh+azzN/+QE8dHNX1cNtXb0DK9Zq/5RuZP90RVtayf/wvwIDcLkkLF2t34l/6Ulhup8tnp4UhnFD5T0Gjred/HZvQ6c2sWjXIlr1pigZyfoeIAMADocLPyw5gB+WHECA1YRuHeOR0z4WXTvEo2OrGLfPNvBW44dn4cXp6zV/hF5QWI3te4+hdbMmql73lzWHUVuv/TbD8bl8/E8n+OdvAvqb/fkVurQVPenqCW10e/d9qvFneQ9ssYhomxWNTm1ikd3Whs5tY3VZBGVrEozoyEBd28ieqr7BiWVrCrBszYkAaDaLaNciGl3axSGnfRy6tLXptohSa/G2YPTqnPjXP6uWFizLUz0A6LHDICUhFDntzr22g4yBAcAANu8s1W0us0nEeQPTdZvvVDnt4pCSEIr8I1WwNQlG+5bRaNciBjntY9GlXazHvvn27JSA75e4d/CNWhwOF9ZvLcH6rSV497MtAIDM1Ah0aRuLnA5x6NIuTrWugp4wITdLlwCwcPlB3HZ1R9Wu53RKWPKr9q/pJuRm6bIuh3wDA4ABbN2jXwDonh3vsW+UggC8/dRARIUHIjHOe7Y49ema6DUB4HT25ZVjX145vvjxxJHFiXEh6JuThL5dk9C7SwIiwgI8XGHjDeuTioiwAM3Puti25xjyj1QhJSFUleut21qs+VMiQQDGDuXef/p/7ANgAHo+AejVWZvV0Y3VJivaq27+AJDbz7cWXR0uqsZnP+zCTQ8vRfb5szDmhh/w4vT1+GNLsS49990RYDXh/EH6NDBSc8X+Qh2OG+7WIV630xPJNzAAGMD2Pcd0m6sxe8eNJizUitwB6Z4uQxGnU8L6rSV45YMNGHvjXPQY/wUef3UN/thSrHnfBaX0ag28cLl6HfsWr9Q+AFyg078X8h0MAH6usqoBxyv0O/pX7YNp/MWNl7bzyMJItRWW1GD6l1sx9sa56DnhCzz1xlps0zFgNkbH1ja0zIzSfJ61mwpVOeth94Hj2JdfoUJFZxYYYMaIvmmazkG+hwHAzx0p0W/1f1REICLDfed9sZ6y0iMxxs96rx8uqsY7s7ZgxFXfYeLUeZj/y0Fdutg1xrhh2v+7djolLF7l/sI9PR7/j+ifhjAVOi6Sd5O7wJMBwM8dKanWba4MH149rof7buyMKB2bI+npt42FuP7BJeh70Vd49/MtqNNhP/vZXDCimaqHT52JGlv3Fq3QPgCw9S+dDgOAnyvUMQD48vYxPdiaBOOJ27t7ugxNHSqswpP/W4sBl87GD0sOeKyOmKgg9NPhMKNlbjbvOVpWi407jqpY0b/F24LRQ6PWxeTbGAD8XHGpe2ety5Fg867V997o/IEZuHZiG0+XobnDRdWY8shSTJjyI7bvLfNIDRNytT/vvrbegeVrDisev3B5nuY7Ky4Y3swv1p+Q+hgA/FxNrX6PYoPc6DlvJPfflINhfYxxGMuaTUUYPfl7fPqd/kdRD+6ZguhI7V+5uPMIX82dBGdywTA+/qfTYwDwc3q+i2UAaByTScAbjw/wWMdEvdU3OHH/f1fh+geXoLKqQbd5LRYRowZnaj7PopX5cDjlH0JVXWvHqj+UPz1ojOzWNjRNi9B0DvJdDAB+rr7BqdtcwUEMAI1lNot49eH+uGaC/78OOGn+Lwdx8bT5mnfpO9UEHQ6+KSuvw++bi2WPW7bmsOY/n3ofykW+hQHAz9XV6xcAfKnbnTcwmQQ8fEtXvPpIP7eO7PUlm3eWYtIdC1Gh05OANlnRqh/aczqLFGzlW6jx4T8Wi+fO5SDfwADg5+ob9HsF4K/HzGpt9OBMLPhwDHp1TvR0KbrYuP0oJt2xULfXU3osBpy/TN7N3OmU8LPGR3QP6ZXqt9tOSR0MAH5O1PHorwaHfk8b/E1qYhg+fWkYnr+vN+Ji/ON43rPZsK0ET/xvrS5zjR2aCavFpOkchwqrZLXcVquL4NmMZ+tfOgcGAD9n0fgX36lqddxx4I8EAZiYm4VfPhuPuyd3Rrifd2775NsdWKBDF7yoiEAM6KF9T4AFMh7pa736P1qnPgjk2xgA/JxFh25oJ9XWMQCoISjAjCmT2mP11xPx4NQcJMb6b3+Fe/6zUpdFgRNzm2s+h5yb+iKND/8ZOyRTl06I5Nv4X4ifs1r1ewJQU2fXbS4jCAm24LoL22L55+Pxv8f6o09OEkTRvxq6lJXX4b3Pt2k+T//uSbA1CdZ0jq27S5F/pOqcn9uxrwx5hys1rYWP/6kxGAD8XESYfofz1NXL3wtN52Y2izh/YAY+eXEoVnw+Abdd3RHN0v1nb/f7X21Dmcbvw80mEWOG6tAToBFNgdQ4P+BsWmRGoZUOOx/I9zEA+LnoSP0CAJ8AaC8pPgTTrsrG4o/HYdFHY3Hb1R19/pd9VXUDPvpmh+bzTNRhN8DCRgSAhSu0ff8/caT2/5zkHxgA/FwTHVqhnlRRqV+XNwKaZ0Ri2lXZmD9jNNZ8cxGev7c3Rg5I98kjmb9duFfzOZpnRKJDqxhN51iz8eyr+4uO1mLzTu0O/zGbRIwenKHZ9cm/cOO2n7NF6bel7EixficPno3TKRnu8JO4mCBMHJmFiSOz4HJJ2Ln/OH7bcAS/bSjCmo1FOFqm36FQSuzLr8CWXaVo2zxa03nGj8jCxu3a3YCdTglLfz10xg58C5cfhKTh2T96rHUg/8EA4OdSEsN0m6ug+NwLoPRw1d2LcKy8DoN6pmJwrxS0a6HtTcXbiKKAVk2j0KppFK68oDUAYO/BcqzZVIQ1GwuxekMhDhd5R1g71Y8/H9A8AIwdkomnXl+raROihSvyzhgA3Dk4qDHGj+Djf2o8BgA/lxgbAotFhN2u/QK9Q0eqPf7tu77Bid82FqGu3oHNO0vx8oz1SE0Mw+BeKRjcKwXdOsQbcntU07QINE2LwMXnn9gOd7CgEgtXHMTCZXlYt7UYTqe2R9I2xh9bSzSfIyzUiiG9UvD9kv2azfHL6gLU1jv+1Rq7utaOX9cXajZvZHgABvVM1uz65H+M95vQYEwmASkJ+jwFqKt3YH9+hS5zncnaTUX/+naXd7gS73+5DZdMW4B2Iz7F1ff8hJlzdqLkWI2HqvS8tKQwXHdhW3z5ei7WfnsRnri9h8d3FmzdVarp4/GTxmt8QFBtvQMr1h75158v+fUQGuzadcscNShD846H5F8YAAygeUakbnNt3VOq21yns+L3f//iPVVNnQOLV+XjvudXodu4LzBhyo94e+Zm7D1YrlOF3ic6MhCXj22Jnz4ah09fGoau7eM8UkdFVQPyj2i7Px4A+uYkad5caeGKf2/1U3JgkBw8+Y/kYgAwgI4ar3w+lZJjUdUiScDcpY1/tOt0SlizqQhPv/k7Bl42G70nfon7nl+Fn1bm6/LKxNsIAtC7SyI+f20EHpvWzSOnOx4p0X5tgigKGDusqaZzLFqRD4fz//8bcjhc+Pk37Q7/yUwJR8fWNs2uT/6JawAMoENL/X4xrPj9sG5z/XvuArc6rOUfqcLMOTsxc85OBAea0aNTAgb3SsHQPqmI0XA3hcPhQkV1Ayqq7KiorEdFVQPKKxtQUdXw51/b//z79aiotKOiqgGV1Q2Y8855mpzAKIoCrrygNdpkReOKOxehula//g6VVfrMNSE3C298skmzVw5l5XVYt6UY3TrEAwBWbyjUtOWxHicekvcTZB7+xgBgAO1bRsNsEv/2jUQr+/LKsS+/Apkp4ZrP9U9f/rhHtWudfFWweFU+HnpxNbq0j8PgnskY1Cv1nP9suw8cx679x/9+A6+qP3ET//MGXlFV/+ffb0CNwjMUdh8o13SHQ077OLzwQB/c8OASzeb4p6pqfQJARnI4OrWJxbot2j2xWrQ8/68A0JgGQUqJooAxQ7V9okH+iQHAAEJDrMhuY8PaTUW6zDd7/h7ceV0nXeY66XBRtewz2RvL4XRh9fojWL3+CD7+dgeWfTb+rJ//ev5evPnpJk1qOdWOfWWab3Ec0S8NA3ukYMmv2navO0nLRXL/NHFklqYBYN4vB/Dg1BwAwOKV2v3769U50a8PjCLtcA2AQfTrpt/RoF/8uAv1Dfr9IgeAF6b/ocucfRtxxGpSnD6/jNdt1ifQXT6uhS7zAECAjodXnTcgXdN1DocKq7B9bxm27i7FoULtemSM5+I/UogBwCAGdNdvf3DR0VrM+n6nbvNt31uG2Qu0byULAH1yzh0AUhJCdagE+Pm3Q7rM0ycnCRaLPr8qQkMsusxzYi4rhvdP03SOhcsPyjomWK6QIAuG9EnR7Prk3xgADKJt82hd38u/9P4GFB3Vvv2s3e7Cfc+thMul/QZys1lEr07x5/xc84wozWsBgCPFNdi255jm85hNIlLi9Qk18TZ929hO1Lhz3sLleVio4el/IwemIyRIv9BE/oUBwEDG6fio8HhFPW57chkcDm0XHj795lqs36Z9BzkA6NohDqEh1nN+LjEuBNE6ncHw6Xf6PGnRI2ABQFKcPkHjpO7Z8UjWMNxs3V2K7Xu1C2nc+0/uYAAwkHFDm0EU9WvTu3LdYdz+9HLN2szOXrAX73+5TZNrn46cb4sdWurTe+HreXtwvEK77WXAiW2Kh3Q4OyAxNkT3kwxFUdD0JipJ0GyrYXJ86F+7DIiUYAAwkKT4EAzpre/7wu8W7cM19y5GVbW6RwV/NHs77nxmuarXPJvwUCtGyHhf3K2jPt30ausdePat3zWd45c1BZo/yQHgsUObJo7M0jUYq2X8iCzI3PZN9DcMAAZzw8XtdJ9z6ep8DL3yW/y82v1Fa4UlNZjyyFI89NJqXQ+wGTMkU1bTnYE99Atan/2wC8vXatdl7pNv9XnN0KNTgi7z/FNyfCi6+tg3aUEAxmnczZD8HwOAwXRqG+uRx4YFhdW44q5FmDh1HhYsy5O933vHvjI8/PJqDLjka/yw5IA2RZ7FRX+eotdYzTMiddsNIEnAlEd+wa79x1W/9rxfDurSA0AQgP467lT5pwkjfOtdek67OKQl6XfUN/knNgIyoPtu6oKxN/ygy8lr//TbxkL8trEQYaFWdG0fh+w2NqQnh8PWJAghQRY4nS6UVdShrLwBpcdrsX1PGdZuKnKrxa+7BvVMQZss+Y+nRw3OxOsfa98QCADKK+tx4c3z8P5zg5GtUk/4dVuKceczK1S51rl0aReHjGT9u0eelDsgHQ+/vBrVNfq1PXaH1icakjEwABhQdmsbxg5tqtve+dOprGr4q9WuNxME4I5rsxWNvXBkc037zf/TsfI6TJw6D3dcm41rL2wDs0n5A76v5u3R9YY40cO97IMDzRg5IB1fzN3t0ToaIzDAjBH90j1dBvkBvgIwqHuu74Kw0HNvaTO63P7pir79A0BaUhh6dU5UuaKza7A78cybv2PIpG/w1bw9qK2Xd87A6g2FuOKuRbjj6eW63fxDgiwYOTBdl7nOxlcO1BnWNxXh/NklFfAJgEHF24Lx8NSuuOtZfR7x+iKzScTtV7t3psFNl7XzyAmJ+/IrcMfTy/HIK7+hV6d4dO0Yj2ZpEUiJD0NQoBkWi4DyihOHFO3Lr8DG7SVY+ccR7D1YrnutF56X5RXNbLq2j0NmagT25en/70AOtv4ltTAAGNjEkVn48eeDWLraux/De8r1l7RFs/QIt67Rq3MictrH6XYQ0z9VVTdgwfI8LFiu3Wl07ggONGPKpPaeLuMv44Y1xX/f/cPTZZxRvC1Y96dK5L/4CsDgXri/l+7tV31BZmoEbr2yoyrXumtyJ+7XPoOpl3dAjE5dExtjwogsmEze+3/WuGHNvLo+8i0MAAYXHRWENx8fALOZ/ymcJIoCnrunl2on03XrEM+WraeRlR6JyRe19XQZfxNvC0bPTt77DXvMkExPl0B+hL/1CZ3axuLBKTmeLsNrTL6oLXLaq9vJ74EpOWgSEajqNX2Z1WLCq4/00+2UQTkmeOkWu46tbWiRqc9BU2QM3vfTRx5x1fjWuHpCa0+X4XEDe6Tg7smdVb9uk4hAPH9fb74K+NNDU3PQulkTT5dxWsP7pnnlKns+RSK1MQDQXx6a2hWjBmV4ugyP6djahjee6K/ZO9bBvVIw2QOtmL3NhSOb4/JxrTxdxhkFWE0438t+DiwWEed5wVZJ8i8MAPQXURTw0kN9DfmLJiM5HNOfHYQgGf3+lbh7cif065qk6RzebHi/NDx9Vw9Pl3FO3tYTYHDPFL5ConMSIK/rGAMA/Y3ZJOKVh/vhwpHyet/7sg6tYvD1G7m6rEY3m0S89dRA1dr1+pJhfVLxv0f6u9WhUC/ZrW3ISo/0dBl/GS/jKGqixvL+n0TSndkk4rl7exli+1r/bsmY9cpwROu4FS040IwZzw1G2+aeOf7WEy4Z1QJvPjHQKxf9ncl4LzkgKDoqCP27GfepEWnHd34aSXdTJ3XAB88NQXSk/z16FATg6gmtMf3ZQR7pQhcVEYgvX8/FsD6pus+tJ7NJxL03dMYzd/X0uf3r40c084qnFWMGZ3KbLmmC/1XRWfXvnox5M8boer691hJjQ/DJi8PwyC3dPPqLNTjQjLeeHIhbrujol7/gW2RG4du3z8ONl3pPpz85YqKC0NcL1mvw5D/Siv/91iHVxcUEYcZzg/HWkwORGBfi6XIUE0UBE0Y0w4IPx6B3F+9o9iKKAu64Nhtzp49Cp7axni5HFcGBZtx+TTZ+eO98tGvh2685PN0ToEVmlNdulyTfx7MAqNFG9EvDoJ7JmDVnF17/ZCOKjtZ6uqRGG9I7BXde1xktvbSRSsvMKHz9ei6+X7wfb83cjG17jnm6JNkCrCZMHJmFmy/viLgY72nv644hvVLRJCIQx8rrPDK/pwMI+TcGAJLFajHhigta4dLRLTB/WR4+/nYHfttwRLcz7+WwWEQM7JGMGy9t7xOr7kVRwOghmRg9JBPL1xZg+hfbsfz3AjgcLk+XdlYJscGYmNscl49r6VV9/dVgsYgYNTgTH3y9Tfe5zSaRrX9JUwwApIjZfKIxyXkD03GkuAZzf96PhcvysG5rscdvWO1bxuCC4U0xanCmz+6d7pOThD45STheUY+FK/Iwd+kBrFp3BA12p6dLA3Cis+HQPqkY0T8Nfbok+dwCPzkm5DbzSADo2zUJtiY8qN+zbmgAAArDSURBVIu0wwBAbkuIDca1E9vg2oltUF1rx5qNhVi3uQQbdxzFph1HcbyiXrO5BQFolhaJnPZxyGkfh64d4pAcH6rZfHqLDA/AxNwsTMzNQoPdic07S7FuczF+31yEzbtKcaS4WpenL+lJYejcLg5d2sWic9tYZKVHQhT996Z/qrbNo3HndZ1QXePQdd6hvf1n4S15JwYAUlVIkAUDuqdgQPf//+VVVl6HQ4XVOFRYhUNHKpFfWIVDR6pQXtmA+gYHqqrtcDhdqKiyw+FwobrWjqAAM6xWE8JCLLCYRYSGWBAeGoDk+FCkJIQgJSEcyQkhaJYWicjwAA/+E+vHajGhc9sTN+DJF584Ra+u3oH9+RXYl1+B/YfKcfRYHY6V16G0rA6lZbUor2xAde2JG1d1rf1vT2cCA8wIsJoQGmKGxSQiLNSK6KggJMeHIikuBMkJYUiOC0F6SrjPPklRy82Xd/B0CUSqYwAgzUVFBCIqItDnV4R7o8AAM1o1a4JWXClORDJxGyAREZEBMQAQEREZEAMAERGRATEAEBERGRADABERkQExABARERkQAwAREZEBMQAQEREZEAMAERGRATEAEBERGRADABERkQExABARERkQAwAREZEBMQAQEREZEAMAERGRATEAEBERGRADABERkQExABARERkQAwAREZEBMQAQEREZEAMAERGRATEAEBERGRADABERkQExABARERkQAwAREZEBMQAQEREZEAMAERGRATEAEBERGRADABERkQExABARERkQAwAREZEfEARB1ucZAIiIiAyIAYCIiMiAGACIiIgMiAGAiIjIgBgAiIiIDIgBgIiIyIAYAIiIiAyIAYCIiMiAGACIiIgMiAGAiIjIgBgAiIiIDIgBgIiIyIAYAIiIiAyIAYCIiMiAGACIiIgMiAGAiIjIgBgAiIiIDIgBgIiIyIAYAIiIiAyIAYCIiMiAGACIiIj8gCDI+zwDABERkQExABARERkQAwAREZEBMQAQEREZEAMAERGRATEAEBERGRADABERkQExABARERkQAwAREZEBMQAQEREZEAMAERGRATEAEBERGRADABERkQExABARERkQAwAREZEBMQAQEREZEAMAERGRATEAEBERGRADABERkQExABARERkQAwAREZEBMQAQERH5AUHm5xkAiIiIDIgBgIiIyIAYAIiIiAyIAYCIiMiAGACIiIgMiAGAiIjIgBgAiIiIDIgBgIiIyIAYAIiIiAyIAYCIiMiAGACIiIgMiAGAiIjIgBgAiIiIDIgBgIiIyIAYAIiIiAyIAYCIiMiAGACIiIgMSFYAqK93alUHERERuUMQZH1cVgDIP1Ip6+JERESkE0mS9XERAhoa++GDBQwARERE/kCUJJQ39sMHD1doWQsRERHpRARQ2NgPF5fWorbeoWE5REREpERBcbWsz4smSTrQ2A9LErA/n08BiIiIvM3uA41+oA8AdSJM4jY5I9ZuKpJXEREREWnK4XBhy65SGSOkUtHhMH0jZ5I1mxr9xoCIiIh0sGVXKepkvaIXDoiHSmt/A6RGb/Bfs7FYQWlERESklfXbSuQNkISVJ/sAyFgIWIP9h7gOgIiIyFv8vKZA1udFk2m2CACihD/kDFy0Ik/WRERERKSNyqoGrFx3WM4Q54Gi2t9EAHCZhO/ljPxm4V45HyciIiKNLFl9CHa7q9GfF4A84M9WwHlF9hkAGj16255j2Lm/TG6NREREpLIFyw/KGyDhJ+D/zwJwANgtZ/y3C/fJm5CIiIhUVVXdgJ9Xy3v/Lwh4Azj1MCBJmiXnArO+34XqWrusSYmIiEg9sxftk3svrjhQYt8AnBIArJGOlwA0+iihsoo6zJyzU86kREREpBJJAj79doesMYIgLTn5v/8KAHv2oALAHjkXenvWVpmNB4iIiEgNi1flY8c+eevxRFF45q///be/IQmPyLlQybEafPIdnwIQERHp7X8fbZT1eQFS8f5C+5qTf/23AHDgaMMsAJVyLvji++txWOYJRERERKTcghV5WL9dXvc/CZh+6l+b/vmByBBTEoCujb2g3e7CvrwKjBmSKasQIiIikq/B7sT1DyzB8Yr6Ro+RJDilo47hFSd2/QH4xxMAAAgtsd8rSZKsF/tLV+djzuL9coYQERGRAq9/sll2S35BlH44BNSe+mf/egJQAjREhpqSAXSWc/FlawowuHcKYqKCZBVFREREjbN5Zyluf3o5XK5Gb9qDBEhmwdH/eDX+9r5eOMPnrak2SzmAQDmFZaaEY87b5yMs1CpnGBEREZ1Dda0duVd/hwMFspbqQRCw5GCxfdA///xfTwD+5AwPMgcKAvrKmaSsoh4bdhzFeQPSYTb/6+0C0f+1dzehcVVRHMD/5828SaomY9vMjFKTNEFpV6ku2oUxhSq0IXRhEQoRVza4CbiwVBQriCCKxW50o6W6ED+KrkqgJWq/iE2wtiLRttEmzIemZiYfY2qaZt7MOy5ElHZeZt6bNwkk/9927jn37s67H3MvERF5UCgoel87jUs/u3z2F7ANWO3Zm/jr9h8cq3RqKveqqJb9TPC/zl+8jp6XT2EhV3AbSkREREW8/t53+Gog5T5Q8HE8g6K13GkFAABQv6b2nIjdA+etgqKS4zfw45VJ7HysEaHQol0QERGRA1Xg0JGLOHLsJ/fBgvlk2moHUHRGvmh1np23xsN3B1oBbHHbb2L8Bk6eS2D7tgewNlzjNpyIiGhVKxQUrxwexIdfXPaWQLDvzzn7B+efSzOaIuZ1AFEv/a8L1+KtF9uxq6PJSzgREdGqMzUzjxfeHMCZod88xQswmMhYj5ZoU1pzGC0ImSMKmJ5GAmBv10M42LsV4TquBhARETnpH0jipUPnMTUzX7pxMYJbRs66P55FdvFmZWqO1HQp7D43MbdbF67F/p5H0L17EwIBz2mIiIhWnF/iWRw+egknziYqSaMqRmcqvdBfqqGrKtwcDb2tqge8j+sfGzfUofeZLXhyZytCJg8JEhHR6jU8MoUPPh9G3+m4qwt+ilHoG6lM/mA5bV1Pwxsj5lEBnnU/rDutv7cWT3U+iN07WtC2uQHCRQEiIlrh8gUbV0dncOJsAn2nxlxf7ONEIf2pTG5Xue09ldyNEfOYDez1Euvkvshd2L5tA1ob6/1MS0REtOxsG4j/Posr16YxMpZFzvL9rpzvkxlrq5sAz3PuanwEEBERkTsK/JrKWJsB2G7iPG/AZ2/aX9bXBWtE0eE1BxEREVVAcLkmYz08/b9nfstV0Qm82bnCN/X3BCYE6EIFqwlERETkkujxZDrfMe1w01/JcD/G0BJFW0HNMwDW+pGPiIiIHKmovpOYzFf0rzw/Z+2h5obgSRXZ4WNOIiIi+s+siHYm0vnBShP5+WZvLjGZf1xF9ijufHaQiIiIKqD4ui5jRfwo/kD19u2DTQ3mRxA8DX8/MoiIiFab0WAA3WN/WBf8TFrVg3uxGKKhQvATgTwB4SFBIiKicil03FDjQGIy92k18i9JUY7FEF1jm+8qsKeSB4WIiIhWOBvAkGFgf3zCGqpmR0s9Kzcao+ZzonhegU3C7QEiIlrtBAuqGDZEP7sl+fcnJjC3NN0un2DTerNbDe0WoE1VYiIILuN4iIiIqkuwAEVagGuqesE0cHw0nf92OYbyN1yyJXmEcDk3AAAAAElFTkSuQmCC;" parent="KsE8Vp3s20GESLzes6BM-16" vertex="1">
          <mxGeometry x="520" y="585" width="80" height="80" as="geometry" />
        </mxCell>
      </root>
    </mxGraphModel>
  </diagram>
</mxfile>
